# xmcd CD database file
#
# Track frame offsets:
#	150
#	19732
#	36790
#
# Disc length: 716 seconds
#
# Revision: 0
# Processed by: cddbd v1.5PL3 Copyright (c) Steve Scherf et al.
# Submitted via: CDex 1.50beta8
#
DISCID=1a02ca03
DTITLE=Hirobumi Suzuki and Friends - When you Love Me
DYEAR=1900
DGENRE=Rock
TTITLE0=When you Love Me
TTITLE1=Just My Style
TTITLE2=Just My Style(Featuring Dr.K)
EXTD=
EXTT0=
EXTT1=
EXTT2=
PLAYORDER=
